<svg width="20" height="20" viewBox="0 0 17 16" fill="#000000" xmlns="http://www.w3.org/2000/svg">
<path d="M0.64575 1.9272L1.86075 3.1422C2.99068 1.66294 4.60096 0.623887 6.41439 0.203904C8.22783 -0.216079 10.1309 0.00928777 11.7961 0.841209C13.4613 1.67313 14.7844 3.05955 15.5375 4.7618C16.2907 6.46406 16.4269 8.37563 15.9226 10.1674C15.4183 11.9593 14.3051 13.5192 12.7746 14.5788C11.2442 15.6383 9.39222 16.1311 7.53756 15.9724C5.68291 15.8137 3.94161 15.0134 2.61342 13.7092C1.28524 12.4051 0.453274 10.6786 0.26075 8.8272C0.240329 8.62921 0.299392 8.43123 0.424948 8.27679C0.550504 8.12235 0.732266 8.02412 0.93025 8.0037C1.12823 7.98328 1.32622 8.04234 1.48066 8.1679C1.63509 8.29345 1.73333 8.47521 1.75375 8.6732C1.91141 10.1856 2.59432 11.5949 3.68365 12.6558C4.77299 13.7167 6.1998 14.3621 7.71583 14.4798C9.23187 14.5974 10.7412 14.1798 11.9811 13.2997C13.2211 12.4195 14.1132 11.1325 14.5023 9.66248C14.8914 8.19251 14.7528 6.63265 14.1107 5.2543C13.4685 3.87595 12.3635 2.76636 10.9878 2.11857C9.61204 1.47079 8.05276 1.32583 6.58121 1.7089C5.10966 2.09198 3.81898 2.97885 2.93375 4.2152L4.29175 5.5732C4.3268 5.60816 4.35069 5.65275 4.36037 5.7013C4.37005 5.74986 4.3651 5.80019 4.34614 5.84593C4.32718 5.89167 4.29507 5.93074 4.25388 5.95821C4.21268 5.98567 4.16426 6.00029 4.11475 6.0002H0.46875C0.402446 6.0002 0.338858 5.97386 0.291974 5.92698C0.24509 5.88009 0.21875 5.8165 0.21875 5.7502V2.1042C0.218662 2.05469 0.233276 2.00627 0.26074 1.96507C0.288205 1.92388 0.327282 1.89176 0.373019 1.87281C0.418755 1.85385 0.469092 1.8489 0.517646 1.85858C0.5662 1.86826 0.610786 1.89214 0.64575 1.9272ZM7.96875 4.0002C8.16766 4.0002 8.35843 4.07922 8.49908 4.21987C8.63973 4.36052 8.71875 4.55129 8.71875 4.7502V7.7422L10.7467 8.5542C10.9255 8.6321 11.0668 8.77654 11.1409 8.95689C11.2149 9.13724 11.2158 9.33934 11.1434 9.52034C11.0709 9.70135 10.9309 9.84703 10.7529 9.92653C10.5748 10.006 10.3729 10.0131 10.1897 9.9462L7.68975 8.9462C7.5508 8.89037 7.43171 8.79427 7.34778 8.67025C7.26385 8.54623 7.21892 8.39995 7.21875 8.2502V4.7502C7.21875 4.55129 7.29777 4.36052 7.43842 4.21987C7.57907 4.07922 7.76984 4.0002 7.96875 4.0002Z" fill="#000000"/>
</svg>
